<?xml version="1.0" encoding="utf-8"?>
<!-- Generator: Adobe Illustrator 22.0.0, SVG Export Plug-In . SVG Version: 6.00 Build 0)  -->
<svg version="1.1" id="Layer_1" xmlns="http://www.w3.org/2000/svg" xmlns:xlink="http://www.w3.org/1999/xlink" x="0px" y="0px"
	 viewBox="0 0 1920 1080" style="enable-background:new 0 0 1920 1080;" xml:space="preserve">
<style type="text/css">
	.st0{fill:#CCC6C6;}
	.st1{fill:#414141;}
	.st2{fill:none;}
	.st3{display:none;}
	.st4{font-family:'BrengkelRegularRegular';}
	.st5{font-size:120px;}
	.st6{letter-spacing:2;}
	.st7{font-size:220px;}
	.st8{letter-spacing:5.8;}
	.st9{font-family:'TitilliumWeb-Regular';}
	.st10{font-size:144px;}
	.st11{letter-spacing:3.8;}
	.st12{font-family:'AzonixRegular';}
	.st13{font-size:101px;}
	.st14{letter-spacing:2.3;}
</style>
<polygon class="st0" points="969.4,233.5 1124.8,323.6 1047.1,369 892,279 "/>
<polygon class="st0" points="891.5,369 1046.9,459.1 969.2,504.5 814.1,414.5 "/>
<polygon class="st1" points="892,279.5 892,369 1046.9,458.1 1046.7,368.8 "/>
<polygon class="st2" points="1535.9,322.5 1543.4,322.5 1543.4,322.5 1535.9,322.5 "/>
<g class="st3">
</g>
<polygon class="st2" points="1550.1,206.1 1556.1,206.1 1556.1,206.1 1550.1,206.1 "/>
<g class="st3">
</g>
<rect x="486.3" y="529.6" class="st2" width="916.5" height="498.9"/>
<text transform="matrix(1 0 0 1 486.2733 683.6202)" class="st4 st5 st6">           </text>
<text transform="matrix(1.2 0 0 0.45 803.0657 683.6202)" class="st4 st7 st8">TEC</text>
<rect x="498.8" y="658.6" class="st2" width="916.5" height="498.9"/>
<text transform="matrix(1 0 0 1 498.7732 762.0225)" class="st4 st5 st6">           </text>
<text transform="matrix(1.3 0 0 0.5 815.5657 762.0225)" class="st9 st10 st11">TEC</text>
<rect x="497.8" y="486.1" class="st2" width="916.5" height="498.9"/>
<text transform="matrix(1 0 0 1 497.7732 570.1168)" class="st4 st5 st6">           </text>
<text transform="matrix(1.3 0 0 0.7 814.5657 570.1168)" class="st12 st13 st14">TEC</text>
</svg>
